<svg id="SvgjsSvg1087" width="550" height="550" xmlns="http://www.w3.org/2000/svg" version="1.1" xmlns:xlink="http://www.w3.org/1999/xlink" xmlns:svgjs="http://svgjs.com/svgjs"><defs id="SvgjsDefs1088"></defs><g id="SvgjsG1089"><svg xmlns="http://www.w3.org/2000/svg" viewBox="0 0 1000 600" width="550" height="550"><g data-name="app development"><polygon fill="#ffbf66" points="553.541 83.544 305.572 83.544 181.588 298.291 305.572 513.037 553.541 513.037 677.525 298.29 553.541 83.544" class="colord9ebff svgShape"></polygon><polygon fill="#ffbf66" points="793.996 97.051 685.404 97.051 631.108 191.095 685.404 285.138 793.996 285.138 848.292 191.095 793.996 97.051" class="colord9ebff svgShape"></polygon><polygon fill="#ffbf66" points="786.088 328.884 708.909 328.884 670.32 395.723 708.909 462.561 786.088 462.561 824.677 395.723 786.088 328.884" class="colord9ebff svgShape"></polygon><path fill="#a54db8" d="M499.45252,410.97247v96.12011h77.75976V410.97247Zm50.72,40.2102a12.66,12.66,0,0,1-25.32007,0V438.52252h25.32007Z" class="color4d76b8 svgShape"></path><path fill="#9044a0" d="M499.45252,452.92364H524.986a12.7112,12.7112,0,0,1-.13354-1.741V438.52252h25.32007v12.66015a12.70961,12.70961,0,0,1-.13355,1.741h27.17334V410.97247H499.45252Z" class="color4469a0 svgShape"></path><rect width="357.964" height="228.036" x="359.35" y="210.487" fill="#a54db8" rx="16" class="color4d76b8 svgShape"></rect><rect width="326.44" height="197.985" x="375.113" y="225.513" fill="#ffffff" rx="7" class="colorfff svgShape"></rect><path fill="#e887fd" d="M695.82355,225.513H380.84133a5.72876,5.72876,0,0,0-5.72873,5.72874v9.59156H701.55228v-9.59156A5.72876,5.72876,0,0,0,695.82355,225.513Z" class="colora9c0ff svgShape"></path><rect width="221.28" height="78.24" x="624.217" y="157.821" fill="#ffffff" rx="5" class="colorfff svgShape"></rect><rect width="137.16" height="3" x="652.417" y="222.261" fill="#a54db8" class="color4d76b8 svgShape"></rect><rect width="87.12" height="3" x="739.537" y="209.121" fill="#a54db8" class="color4d76b8 svgShape"></rect><rect width="78.12" height="3" x="652.417" y="209.121" fill="#a54db8" class="color4d76b8 svgShape"></rect><rect width="57.24" height="3" x="769.417" y="195.981" fill="#a54db8" class="color4d76b8 svgShape"></rect><rect width="108.6" height="3" x="652.417" y="195.981" fill="#a54db8" class="color4d76b8 svgShape"></rect><rect width="174.24" height="3" x="652.417" y="182.841" fill="#a54db8" class="color4d76b8 svgShape"></rect><rect width="174.24" height="3" x="652.417" y="169.701" fill="#a54db8" class="color4d76b8 svgShape"></rect><path fill="#a54db8" d="M634.11475,175.38281a1,1,0,0,1-.707-1.707l6.36377-6.36377a.99989.99989,0,1,1,1.41407,1.41406l-6.36377,6.36377A.99674.99674,0,0,1,634.11475,175.38281Z" class="color4d76b8 svgShape"></path><path fill="#a54db8" d="M640.47852,175.38281a.99676.99676,0,0,1-.707-.293l-6.36377-6.36377a.99989.99989,0,0,1,1.41407-1.41406l6.36377,6.36377a1,1,0,0,1-.707,1.707Z" class="color4d76b8 svgShape"></path><path fill="#a54db8" d="M840.49658,237.561H629.2168a6.50753,6.50753,0,0,1-6.5-6.5V162.82129a6.50752,6.50752,0,0,1,6.5-6.5H840.49658a6.50752,6.50752,0,0,1,6.5,6.5V231.061A6.50753,6.50753,0,0,1,840.49658,237.561ZM629.2168,159.32129a3.50424,3.50424,0,0,0-3.5,3.5V231.061a3.50425,3.50425,0,0,0,3.5,3.5H840.49658a3.50425,3.50425,0,0,0,3.5-3.5V162.82129a3.50424,3.50424,0,0,0-3.5-3.5Z" class="color4d76b8 svgShape"></path><rect width="125.76" height="171.84" x="222.55" y="299.003" fill="#ffffff" rx="4" class="colorfff svgShape"></rect><rect width="51.36" height="3" x="248.71" y="447.863" fill="#a54db8" class="color4d76b8 svgShape"></rect><rect width="81.36" height="3" x="248.71" y="435.263" fill="#a54db8" class="color4d76b8 svgShape"></rect><rect width="51.36" height="3" x="248.71" y="419.423" fill="#a54db8" class="color4d76b8 svgShape"></rect><rect width="81.36" height="3" x="248.71" y="406.823" fill="#a54db8" class="color4d76b8 svgShape"></rect><rect width="81.36" height="3" x="248.71" y="394.223" fill="#a54db8" class="color4d76b8 svgShape"></rect><circle cx="285.43" cy="346.043" r="24.48" fill="#e887fd" class="colora9c0ff svgShape"></circle><path fill="#a54db8" d="M344.31055,472.34277H226.55029a5.50622,5.50622,0,0,1-5.5-5.5V303.00293a5.50622,5.50622,0,0,1,5.5-5.5H344.31055a5.50622,5.50622,0,0,1,5.5,5.5V466.84277A5.50622,5.50622,0,0,1,344.31055,472.34277ZM226.55029,300.50293a2.50295,2.50295,0,0,0-2.5,2.5V466.84277a2.50295,2.50295,0,0,0,2.5,2.5H344.31055a2.50295,2.50295,0,0,0,2.5-2.5V303.00293a2.50295,2.50295,0,0,0-2.5-2.5Z" class="color4d76b8 svgShape"></path><path fill="#a54db8" d="M241.93066 442.313H230.83057v-11.1001h11.10009zm-8.10009-3h5.10009v-5.1001h-5.10009zM241.93066 401.273H230.83057v-11.1001h11.10009zm-8.10009-3h5.10009v-5.1001h-5.10009zM233.19824 316.74463a1 1 0 01-.707-1.707l6.36426-6.36377a.99989.99989 0 111.41406 1.41406l-6.36426 6.36377A.99676.99676 0 01233.19824 316.74463z" class="color4d76b8 svgShape"></path><path fill="#a54db8" d="M239.5625,316.74463a.99676.99676,0,0,1-.707-.293l-6.36426-6.36377a.99989.99989,0,1,1,1.41406-1.41406l6.36426,6.36377a1,1,0,0,1-.707,1.707Z" class="color4d76b8 svgShape"></path><rect width="88.92" height="11.342" x="403.597" y="351.828" fill="#e887fd" rx="1" class="colora9c0ff svgShape"></rect><rect width="88.92" height="11.342" x="452.977" y="332.234" fill="#e887fd" rx="1" class="colora9c0ff svgShape"></rect><rect width="45.12" height="11.342" x="606.097" y="348.247" fill="#e887fd" rx="1" class="colora9c0ff svgShape"></rect><rect width="45.12" height="11.342" x="402.937" y="332.234" fill="#e887fd" rx="1" class="colora9c0ff svgShape"></rect><rect width="45.12" height="11.342" x="404.137" y="256.138" fill="#e887fd" rx="1" class="colora9c0ff svgShape"></rect><rect width="46.08" height="3" x="606.097" y="393.425" fill="#a54db8" class="color4d76b8 svgShape"></rect><rect width="76.08" height="3" x="606.097" y="381.965" fill="#a54db8" class="color4d76b8 svgShape"></rect><rect width="56.08" height="3" x="606.097" y="370.505" fill="#a54db8" class="color4d76b8 svgShape"></rect><rect width="46.08" height="3" x="606.097" y="323.674" fill="#a54db8" class="color4d76b8 svgShape"></rect><rect width="76.08" height="3" x="606.097" y="312.214" fill="#a54db8" class="color4d76b8 svgShape"></rect><rect width="76.08" height="3" x="606.097" y="300.754" fill="#a54db8" class="color4d76b8 svgShape"></rect><rect width="76.08" height="3" x="606.097" y="289.294" fill="#a54db8" class="color4d76b8 svgShape"></rect><rect width="76.08" height="3" x="606.097" y="277.834" fill="#a54db8" class="color4d76b8 svgShape"></rect><rect width="76.08" height="3" x="404.137" y="398.273" fill="#a54db8" class="color4d76b8 svgShape"></rect><rect width="76.08" height="3" x="404.137" y="302.808" fill="#a54db8" class="color4d76b8 svgShape"></rect><rect width="166.08" height="3" x="404.376" y="385.546" fill="#a54db8" class="color4d76b8 svgShape"></rect><rect width="166.08" height="3" x="404.376" y="372.537" fill="#a54db8" class="color4d76b8 svgShape"></rect><rect width="166.08" height="3" x="404.137" y="289.798" fill="#a54db8" class="color4d76b8 svgShape"></rect><rect width="166.08" height="3" x="404.137" y="276.789" fill="#a54db8" class="color4d76b8 svgShape"></rect><rect width="63.36" height="11.342" x="606.097" y="256.138" fill="#e887fd" rx="1" class="colora9c0ff svgShape"></rect><rect width="75.898" height="141.12" x="435.548" y="84.373" fill="#ffffff" rx="7" transform="rotate(-90 473.497 154.933)" class="colorfff svgShape"></rect><path fill="#a54db8" d="M537.05664,194.3824H409.93652a8.50951,8.50951,0,0,1-8.5-8.5V123.984a8.50951,8.50951,0,0,1,8.5-8.5H537.05664a8.50951,8.50951,0,0,1,8.5,8.5V185.8824A8.50951,8.50951,0,0,1,537.05664,194.3824ZM409.93652,118.484a5.50622,5.50622,0,0,0-5.5,5.5V185.8824a5.50623,5.50623,0,0,0,5.5,5.5H537.05664a5.50622,5.50622,0,0,0,5.5-5.5V123.984a5.50622,5.50622,0,0,0-5.5-5.5Z" class="color4d76b8 svgShape"></path><path fill="#a54db8" d="M411.93262,134.53572a1,1,0,0,1-.707-1.707l6.36377-6.36426a.99989.99989,0,0,1,1.41406,1.41406l-6.36377,6.36426A.99676.99676,0,0,1,411.93262,134.53572Z" class="color4d76b8 svgShape"></path><path fill="#a54db8" d="M418.29639 134.53572a.99676.99676 0 01-.707-.293l-6.36377-6.36426a.99989.99989 0 011.41406-1.41406l6.36377 6.36426a1 1 0 01-.707 1.707zM451.83691 168.62312a10.54787 10.54787 0 01-1.30175.22559 13.88725 13.88725 0 01-1.75391.11328 7.86769 7.86769 0 01-1.52734-.13184 2.71066 2.71066 0 01-1.11231-.47168 2.03312 2.03312 0 01-.67871-.94238 4.60706 4.60706 0 01-.22656-1.584v-5.88379h-7.24121v8.67481a10.4901 10.4901 0 01-1.30078.22559 13.88737 13.88737 0 01-1.75391.11328 7.86058 7.86058 0 01-1.52734-.13184 2.71066 2.71066 0 01-1.11231-.47168 2.03312 2.03312 0 01-.67871-.94238 4.58341 4.58341 0 01-.22656-1.584V145.919q.41456-.07471 1.32031-.207a12.04451 12.04451 0 011.73438-.13184 7.86065 7.86065 0 011.52734.13184 2.72138 2.72138 0 011.11328.4707 2.04293 2.04293 0 01.67871.94336 4.61333 4.61333 0 01.22559 1.584v6.03418h7.24121V145.919q.41456-.07471 1.32031-.207a12.04451 12.04451 0 011.73438-.13184 7.86065 7.86065 0 011.52734.13184 2.72138 2.72138 0 011.11328.4707 2.04293 2.04293 0 01.67871.94336 4.61082 4.61082 0 01.22656 1.584zM455.68359 151.19929a4.81659 4.81659 0 01-.49023-1.13183 4.96347 4.96347 0 01-.22656-1.50879 2.8502 2.8502 0 01.66015-2.11133 2.35648 2.35648 0 011.71582-.6416h16.44336a4.93715 4.93715 0 01.49024 1.13183 4.99388 4.99388 0 01.22656 1.50879 2.85277 2.85277 0 01-.66016 2.11133 2.35964 2.35964 0 01-1.71582.6416h-4.18652v17.42383a10.55959 10.55959 0 01-1.30078.22559 13.899 13.899 0 01-1.75391.11328 7.85355 7.85355 0 01-1.52734-.13184 2.69941 2.69941 0 01-1.11231-.47168 2.04161 2.04161 0 01-.67968-.94238 4.60959 4.60959 0 01-.22559-1.584V151.19929zM492.75586 163.15437a3.644 3.644 0 01-1.2627.66016 5.9515 5.9515 0 01-1.792.24511 6.32362 6.32362 0 01-2.24316-.33984 1.8 1.8 0 01-1.15039-1.16895q-1.05615-3.31786-1.73535-5.374-.67822-2.05518-1.05567-3.60156h-.18848q-.11279 2.2251-.16992 4.05371-.05712 1.82959-.07519 3.56445-.02051 1.73438-.0752 3.50684-.05712 1.77392-.16992 3.92285a6.82851 6.82851 0 01-1.28223.32031 9.6399 9.6399 0 01-1.584.13184 5.239 5.239 0 01-2.584-.52832 2.01984 2.01984 0 01-.92383-1.92285l1.09375-19.23438a3.617 3.617 0 011.32031-1.05566 5.96938 5.96938 0 012.86621-.56543 6.54518 6.54518 0 013.12988.62207 3.677 3.677 0 011.65918 2.01758q.33986.90526.73535 2.07421.397 1.16895.792 2.41407.397 1.24365.77343 2.46972t.67872 2.20606h.18847q.90528-3.167 1.81055-6.12793.90526-2.96045 1.65918-4.96a6.10451 6.10451 0 011.45215-.50879 8.74109 8.74109 0 011.98047-.207 7.15759 7.15759 0 013.0166.54687 2.16686 2.16686 0 011.35742 1.56446q.15087.75585.32129 2.31933.16845 1.56592.35742 3.52637.189 1.96143.37793 4.14844.1875 2.18847.3584 4.20507.16845 2.01856.28222 3.69629.1128 1.67871.15137 2.583a4.92243 4.92243 0 01-1.33887.54688 7.78545 7.78545 0 01-1.792.16992 5.36808 5.36808 0 01-2.41308-.49024 2.07257 2.07257 0 01-1.05664-1.92382q-.22559-4.11036-.28223-7.39161-.05714-3.28125-.16992-5.50586H495.585q-.37793 1.4707-1.09375 3.69532Q493.7749 159.68562 492.75586 163.15437zM510.51953 168.88679a3.25676 3.25676 0 01-3.50781-3.50781V145.88093q.41456-.0747 1.32031-.207a12.04451 12.04451 0 011.73438-.13184 7.86065 7.86065 0 011.52734.13184 2.72243 2.72243 0 011.11328.47168 2.045 2.045 0 01.67871.94238 4.61343 4.61343 0 01.22559 1.584v14.89746h8.63672a4.93191 4.93191 0 01.49023 1.1123 4.6658 4.6658 0 01.22656 1.45215 2.89671 2.89671 0 01-.6416 2.13086 2.33607 2.33607 0 01-1.69629.62207z" class="color4d76b8 svgShape"></path><rect width="78.6" height="126.521" x="730.177" y="261.913" fill="#ffffff" rx="7" class="colorfff svgShape"></rect><path fill="#a54db8" d="M801.77637,389.93415H737.17676a8.5095,8.5095,0,0,1-8.5-8.5v-112.521a8.50951,8.50951,0,0,1,8.5-8.5h64.59961a8.50951,8.50951,0,0,1,8.5,8.5v112.521A8.5095,8.5095,0,0,1,801.77637,389.93415Zm-64.59961-126.521a5.50622,5.50622,0,0,0-5.5,5.5v112.521a5.50622,5.50622,0,0,0,5.5,5.5h64.59961a5.50622,5.50622,0,0,0,5.5-5.5v-112.521a5.50622,5.50622,0,0,0-5.5-5.5Z" class="color4d76b8 svgShape"></path><path fill="#a54db8" d="M741.13477,280.59822a1,1,0,0,1-.707-1.707l6.36377-6.36377a.99989.99989,0,0,1,1.41407,1.41406l-6.36377,6.36377A.9968.9968,0,0,1,741.13477,280.59822Z" class="color4d76b8 svgShape"></path><path fill="#a54db8" d="M747.49854 280.59822a.9968.9968 0 01-.707-.293l-6.36377-6.36377a.99989.99989 0 011.41407-1.41406l6.36377 6.36377a1 1 0 01-.707 1.707zM760.79785 334.41511a2.06086 2.06086 0 01.09473.52735q.019.30321.01855.56542a5.31 5.31 0 01-.15039 1.28223 2.92414 2.92414 0 01-.49023 1.05664 2.55777 2.55777 0 01-.88672.73535 2.97931 2.97931 0 01-1.376.28321 3.85431 3.85431 0 01-1.56543-.33985q-.77343-.33984-1.90429-.98047l-8.1084-4.67675a6.563 6.563 0 01-.52832-5.84571 3.26761 3.26761 0 011.32031-1.35742l10.37109-6.03418a4.627 4.627 0 012.50782 1.33887 2.92542 2.92542 0 01.66015 1.8291 2.97323 2.97323 0 01-.66015 2.05566 6.48423 6.48423 0 01-1.94239 1.376l-6.63769 3.35645zM767.39746 343.01374a10.07824 10.07824 0 01-1.01758.09375q-.49072.019-.90527.01856a3.80825 3.80825 0 01-2.43262-.67871 2.63383 2.63383 0 01-.84863-2.1875 7.2903 7.2903 0 01.30176-2.05469q.30175-1.03712.52734-1.8291l6.6377-23.94824c.37793-.04981.72949-.08106 1.05664-.09473.32617-.01172.62793-.01855.90527-.01855a4.01261 4.01261 0 012.39453.64062 2.39047 2.39047 0 01.88574 2.0752 7.01449 7.01449 0 01-.30175 2.07421q-.30177.98-.56543 1.96094zM776.29785 324.08113a2.06094 2.06094 0 01-.09473-.52832c-.01269-.2002-.01855-.38965-.01855-.56543a5.22541 5.22541 0 01.15137-1.28223 2.89492 2.89492 0 01.49023-1.05566 2.54561 2.54561 0 01.88574-.73536 2.981 2.981 0 011.377-.2832 3.85327 3.85327 0 011.56445.33985q.77344.33837 1.90527.98046l8.1084 4.67579a5.44661 5.44661 0 01.98047 3.39453 5.39042 5.39042 0 01-.45312 2.45117 3.26786 3.26786 0 01-1.31934 1.3584l-10.37109 6.03418a4.62665 4.62665 0 01-2.50879-1.33887 2.92623 2.92623 0 01-.65918-1.8291 2.97292 2.97292 0 01.65918-2.05567 6.50271 6.50271 0 011.94238-1.37695l6.6377-3.35644z" class="color4d76b8 svgShape"></path><rect width="75.898" height="141.12" x="262.481" y="154.953" fill="#ffffff" rx="7" transform="rotate(-90 300.43 225.513)" class="colorfff svgShape"></rect><path fill="#a54db8" d="M363.99023,264.962H236.87061a8.5095,8.5095,0,0,1-8.5-8.5V194.564a8.5095,8.5095,0,0,1,8.5-8.5H363.99023a8.5095,8.5095,0,0,1,8.5,8.5v61.898A8.5095,8.5095,0,0,1,363.99023,264.962ZM236.87061,189.064a5.50622,5.50622,0,0,0-5.5,5.5v61.898a5.50622,5.50622,0,0,0,5.5,5.5H363.99023a5.50622,5.50622,0,0,0,5.5-5.5V194.564a5.50622,5.50622,0,0,0-5.5-5.5Z" class="color4d76b8 svgShape"></path><path fill="#a54db8" d="M240.82861,204.30525a1,1,0,0,1-.707-1.707l6.36377-6.36426a.99989.99989,0,1,1,1.41406,1.41406l-6.36377,6.36426A.99676.99676,0,0,1,240.82861,204.30525Z" class="color4d76b8 svgShape"></path><path fill="#a54db8" d="M247.19238 204.30525a.99676.99676 0 01-.707-.293l-6.36377-6.36426a.99989.99989 0 011.41406-1.41406l6.36377 6.36426a1 1 0 01-.707 1.707zM285.01367 220.26863a5.58915 5.58915 0 00-4.45019 1.77246 7.38938 7.38938 0 00-1.5459 5.01562 6.96923 6.96923 0 001.71582 5.05371 6.13143 6.13143 0 004.62012 1.77246 7.28882 7.28882 0 002.62109-.415 18.072 18.072 0 002.05566-.94239 3.75116 3.75116 0 01.999 1.2627 3.88463 3.88463 0 01.3584 1.7168 3.09155 3.09155 0 01-1.71582 2.62109 10.04368 10.04368 0 01-5.22364 1.07422 15.41714 15.41714 0 01-4.752-.7168 10.5745 10.5745 0 01-3.88477-2.20605 10.41212 10.41212 0 01-2.62109-3.77149 13.99246 13.99246 0 01-.96094-5.44922 13.53423 13.53423 0 01.92383-5.18554 11.00673 11.00673 0 012.52637-3.79 10.62893 10.62893 0 013.75293-2.33887 13.21234 13.21234 0 014.60058-.792 10.5871 10.5871 0 015.374 1.13183 3.3317 3.3317 0 011.90527 2.9043 2.93234 2.93234 0 01-.49023 1.69629 4.02539 4.02539 0 01-1.13184 1.13184 12.26287 12.26287 0 00-2.09277-1.09375A6.82541 6.82541 0 00285.01367 220.26863zM304.92676 236.63581a3.77207 3.77207 0 01-1.11231.24512 13.43215 13.43215 0 01-1.56543.09473 4.35578 4.35578 0 01-2.33789-.50977q-.79248-.50829-.792-2.168v-4.14843h-5.69531a3.74884 3.74884 0 01-.4336-1.09375 5.577 5.577 0 01-.16894-1.3584 2.7643 2.7643 0 01.60254-1.97949 2.155 2.155 0 011.62207-.62207h4.07324v-6.33594a10.49871 10.49871 0 011.15039-.24512 9.05738 9.05738 0 011.52735-.13184 4.25841 4.25841 0 012.31933.52735 2.49676 2.49676 0 01.81055 2.22558v3.96h5.582q.1875.45263.39551 1.1123a4.58848 4.58848 0 01.208 1.37695 2.704 2.704 0 01-.60351 1.94141 2.10718 2.10718 0 01-1.584.623h-3.998zM325.48047 236.63581a3.77207 3.77207 0 01-1.11231.24512 13.43215 13.43215 0 01-1.56543.09473 4.35578 4.35578 0 01-2.33789-.50977q-.79248-.50829-.792-2.168v-4.14843h-5.69531a3.74857 3.74857 0 01-.43359-1.09375 5.57656 5.57656 0 01-.16895-1.3584 2.76435 2.76435 0 01.60254-1.97949 2.155 2.155 0 011.62207-.62207h4.07324v-6.33594a10.49871 10.49871 0 011.15039-.24512 9.05738 9.05738 0 011.52735-.13184 4.25841 4.25841 0 012.31933.52735 2.49676 2.49676 0 01.81055 2.22558v3.96h5.582q.1875.45263.39551 1.1123a4.58849 4.58849 0 01.208 1.37695 2.704 2.704 0 01-.60352 1.94141 2.10716 2.10716 0 01-1.584.623h-3.998z" class="color4d76b8 svgShape"></path><path fill="#9044a0" d="M710.292 373.08594H672.84473v-3H710.292a9.11112 9.11112 0 009.10108-9.10108 12.115 12.115 0 0112.10107-12.10107H755.2002v3H731.49414a9.11112 9.11112 0 00-9.10107 9.10107A12.115 12.115 0 01710.292 373.08594zM509.87842 267.48047h-3V243.77441a9.111 9.111 0 00-9.10059-9.10107 12.115 12.115 0 01-12.10107-12.10107V181.0332h3v41.53907a9.111 9.111 0 009.10058 9.10107 12.115 12.115 0 0112.10108 12.10107zM590.02832 254.917v-3a10.03156 10.03156 0 0010.02-10.02V230.2251a13.03485 13.03485 0 0113.02-13.02h24.708v3h-24.708a10.03157 10.03157 0 00-10.02 10.02V241.897A13.03485 13.03485 0 01590.02832 254.917zM396.05859 274.73438a13.03485 13.03485 0 01-13.02-13.02V250.04248a10.03156 10.03156 0 00-10.02-10.02h-24.708v-3h24.708a13.03485 13.03485 0 0113.02 13.02v11.67188a10.03157 10.03157 0 0010.02 10.02z" class="color4469a0 svgShape"></path><rect width="176.56" height="24" x="695.132" y="441.396" fill="#ffffff" rx="5" class="colorfff svgShape"></rect><rect width="129.12" height="6.364" x="733.212" y="450.214" fill="#e887fd" rx="3.182" class="colora9c0ff svgShape"></rect><path fill="#a54db8" d="M715.6084,457.57764a1,1,0,0,1-.707-1.707l6.36377-6.36377a.99989.99989,0,0,1,1.41406,1.41406l-6.36377,6.36377A.99676.99676,0,0,1,715.6084,457.57764Z" class="color4d76b8 svgShape"></path><path fill="#a54db8" d="M721.97217,457.57764a.99676.99676,0,0,1-.707-.293l-6.36377-6.36377a.99989.99989,0,0,1,1.41406-1.41406l6.36377,6.36377a1,1,0,0,1-.707,1.707Z" class="color4d76b8 svgShape"></path><path fill="#a54db8" d="M866.69238,466.896H700.13232a6.50753,6.50753,0,0,1-6.5-6.5v-14a6.50753,6.50753,0,0,1,6.5-6.5H866.69238a6.50752,6.50752,0,0,1,6.5,6.5v14A6.50753,6.50753,0,0,1,866.69238,466.896Zm-166.56006-24a3.50425,3.50425,0,0,0-3.5,3.5v14a3.50426,3.50426,0,0,0,3.5,3.5H866.69238a3.50425,3.50425,0,0,0,3.5-3.5v-14a3.50424,3.50424,0,0,0-3.5-3.5Z" class="color4d76b8 svgShape"></path><path fill="#a54db8" d="M859.15049,450.2137H834.25205v6.364h24.89844a3.182,3.182,0,0,0,0-6.364Z" class="color4d76b8 svgShape"></path><path fill="#9044a0" d="M394.61865 363.09131a5.5918 5.5918 0 115.5918-5.5918A5.59791 5.59791 0 01394.61865 363.09131zm0-8.1836a2.5918 2.5918 0 102.5918 2.5918A2.59463 2.59463 0 00394.61865 354.90771zM320.60693 363.09131a5.5918 5.5918 0 115.5918-5.5918A5.59791 5.59791 0 01320.60693 363.09131zm0-8.1836a2.5918 2.5918 0 102.5918 2.5918A2.59463 2.59463 0 00320.60693 354.90771zM508.37842 275.73438a5.5918 5.5918 0 115.59179-5.5918A5.59782 5.59782 0 01508.37842 275.73438zm0-8.1836a2.5918 2.5918 0 102.59179 2.5918A2.59453 2.59453 0 00508.37842 267.55078zM640.47852 224.29688a5.5918 5.5918 0 115.59179-5.5918A5.59792 5.59792 0 01640.47852 224.29688zm0-8.1836a2.5918 2.5918 0 102.59179 2.5918A2.59464 2.59464 0 00640.47852 216.11328zM758.57178 355.97559a5.5918 5.5918 0 115.59179-5.5918A5.59791 5.59791 0 01758.57178 355.97559zm0-8.1836a2.5918 2.5918 0 102.59179 2.5918A2.59464 2.59464 0 00758.57178 347.792zM650.81934 420.18408a5.5918 5.5918 0 115.59179-5.59179A5.59791 5.59791 0 01650.81934 420.18408zm0-8.18359a2.5918 2.5918 0 102.59179 2.5918A2.59464 2.59464 0 00650.81934 412.00049zM668.75293 377.17773a5.5918 5.5918 0 115.5918-5.59179A5.59791 5.59791 0 01668.75293 377.17773zm0-8.18359a2.5918 2.5918 0 102.5918 2.5918A2.59464 2.59464 0 00668.75293 368.99414zM585.77881 259.00879a5.5918 5.5918 0 115.5918-5.5918A5.59791 5.59791 0 01585.77881 259.00879zm0-8.18359a2.5918 2.5918 0 102.5918 2.59179A2.59463 2.59463 0 00585.77881 250.8252zM487.17676 184.12891a5.5918 5.5918 0 115.59179-5.5918A5.59791 5.59791 0 01487.17676 184.12891zm0-8.1836a2.5918 2.5918 0 102.59179 2.5918A2.59464 2.59464 0 00487.17676 175.94531zM399.1709 278.82617a5.5918 5.5918 0 115.5918-5.59179A5.59791 5.59791 0 01399.1709 278.82617zm0-8.18359a2.5918 2.5918 0 102.5918 2.5918A2.59464 2.59464 0 00399.1709 270.64258zM344.59863 244.11426a5.5918 5.5918 0 115.5918-5.5918A5.59791 5.59791 0 01344.59863 244.11426zm0-8.1836a2.5918 2.5918 0 102.5918 2.5918A2.59463 2.59463 0 00344.59863 235.93066z" class="color4469a0 svgShape"></path><path fill="#9044a0" d="M701.55225,455.8042h-24.7085a13.03443,13.03443,0,0,1-13.01953-13.02l-.00049-16.67188a10.03114,10.03114,0,0,0-10.01953-10.02v-3a13.03443,13.03443,0,0,1,13.01953,13.02l.00049,16.67188a10.03115,10.03115,0,0,0,10.01953,10.02h24.7085Z" class="color4469a0 svgShape"></path><path fill="#9044a0" d="M704.63916,458.9873a5.59155,5.59155,0,1,1,5.5918-5.5913A5.59781,5.59781,0,0,1,704.63916,458.9873Zm0-8.1831a2.59155,2.59155,0,1,0,2.5918,2.5918A2.59464,2.59464,0,0,0,704.63916,450.8042Z" class="color4469a0 svgShape"></path><rect width="65.828" height="3" x="324.699" y="356" fill="#9044a0" class="color4469a0 svgShape"></rect><rect width="483.366" height="9" x="297.14" y="507.093" fill="#9245a3" class="color456ba3 svgShape"></rect><rect width="77.76" height="16.464" x="499.453" y="482.397" fill="#9245a3" class="color456ba3 svgShape"></rect><path fill="#a54db8" d="M595.2124,507.09258h-113.76v-11.464a5,5,0,0,1,5-5h103.76a5,5,0,0,1,5,5Z" class="color4d76b8 svgShape"></path><path fill="#e887fd" d="M688.67285 121.77344H648.833a1.5 1.5 0 010-3h39.83984a1.5 1.5 0 010 3zM688.67285 131.85352H648.833a1.5 1.5 0 010-3h39.83984a1.5 1.5 0 010 3zM688.67285 141.93359H648.833a1.5 1.5 0 010-3h39.83984a1.5 1.5 0 010 3zM837.6123 403.38428H797.772a1.5 1.5 0 010-3H837.6123a1.5 1.5 0 010 3zM837.6123 413.46436H797.772a1.5 1.5 0 010-3H837.6123a1.5 1.5 0 010 3zM837.6123 423.54443H797.772a1.5 1.5 0 010-3H837.6123a1.5 1.5 0 010 3zM280.87061 146.353H241.03027a1.5 1.5 0 110-3h39.84034a1.5 1.5 0 010 3zM280.87061 156.43311H241.03027a1.5 1.5 0 010-3h39.84034a1.5 1.5 0 010 3zM280.87061 166.51318H241.03027a1.5 1.5 0 010-3h39.84034a1.5 1.5 0 010 3z" class="colora9c0ff svgShape"></path></g></svg></g></svg>